FILE "C:\MYAUDIO1.WAV" WAVE
  TRACK 01 AUDIO
	INDEX 01 00:00:00
  TRACK 02 AUDIO
	INDEX 00 05:49:65 ; 1 second pregap
	INDEX 01 05:50:65
  TRACK 03 AUDIO
	INDEX 00 09:45:50 ; 2 second pregap
	INDEX 01 09:47:50
  TRACK 04 AUDIO
	INDEX 00 15:09:53 ; 3 second pregap
	INDEX 01 15:12:53